<?xml version="1.0" encoding="UTF-8" standalone="no"?>
<!DOCTYPE svg PUBLIC "-//W3C//DTD SVG 1.1//EN" "http://www.w3.org/Graphics/SVG/1.1/DTD/svg11.dtd">
<svg width="100%" height="100%" viewBox="0 0 256 256" version="1.1" xmlns="http://www.w3.org/2000/svg" xmlns:xlink="http://www.w3.org/1999/xlink" xml:space="preserve" xmlns:serif="http://www.serif.com/" style="fill-rule:evenodd;clip-rule:evenodd;stroke-linejoin:round;stroke-miterlimit:2;">
    <g transform="matrix(22.3367,0,0,22.3367,-1948.09,-1604.44)">
        <path d="M97.586,76.863C97.547,76.956 97.562,77.035 97.633,77.097C97.953,77.456 98.207,77.87 98.394,78.339C98.582,78.808 98.676,79.257 98.676,79.687C98.676,80.468 98.553,81.033 98.306,81.38C98.06,81.728 97.668,81.921 97.129,81.96C96.832,81.984 96.562,81.9 96.32,81.708C96.078,81.517 95.926,81.273 95.863,80.976L95.769,80.554C95.761,80.546 95.75,80.55 95.734,80.566L95.734,82.148C95.734,82.429 95.635,82.669 95.435,82.869C95.236,83.068 94.996,83.167 94.715,83.167L94.656,83.167C94.375,83.167 94.135,83.068 93.935,82.869C93.736,82.669 93.636,82.429 93.636,82.148L93.636,73.394C93.636,73.113 93.736,72.872 93.935,72.673C94.135,72.474 94.375,72.374 94.656,72.374L97.715,72.374C97.949,72.374 98.146,72.456 98.306,72.62C98.467,72.785 98.547,72.98 98.547,73.206C98.547,73.8 98.469,74.355 98.312,74.87C98.086,75.589 97.844,76.253 97.586,76.863ZM95.734,74.179L95.734,76.253C95.734,76.261 95.74,76.265 95.752,76.265C95.763,76.265 95.773,76.261 95.781,76.253C96.047,75.581 96.254,74.894 96.402,74.191C96.418,74.097 96.383,74.05 96.297,74.05L95.863,74.05C95.777,74.05 95.734,74.093 95.734,74.179ZM95.863,80.167C96.152,80.16 96.342,80.111 96.431,80.021C96.521,79.931 96.566,79.742 96.566,79.453C96.566,78.913 96.312,78.281 95.804,77.554C95.789,77.538 95.773,77.536 95.758,77.548C95.742,77.56 95.734,77.574 95.734,77.589L95.734,80.038C95.734,80.124 95.777,80.167 95.863,80.167ZM92.594,76.148C92.797,76.148 92.97,76.218 93.115,76.359C93.26,76.499 93.332,76.675 93.332,76.886L93.332,77.05C93.332,77.3 93.244,77.513 93.068,77.689C92.892,77.865 92.679,77.953 92.429,77.953L88.117,77.953C87.867,77.953 87.654,77.865 87.478,77.689C87.303,77.513 87.215,77.3 87.215,77.05L87.215,76.956C87.215,76.73 87.293,76.538 87.449,76.382C87.605,76.226 87.793,76.148 88.011,76.148C88.082,76.148 88.109,76.117 88.094,76.054C88.008,75.663 87.898,75.191 87.765,74.636C87.75,74.605 87.73,74.589 87.707,74.589C87.605,74.589 87.517,74.554 87.443,74.484C87.369,74.413 87.332,74.324 87.332,74.214L87.332,73.71C87.332,73.468 87.416,73.265 87.584,73.101C87.752,72.937 87.957,72.855 88.199,72.855L89.019,72.855C89.09,72.855 89.129,72.82 89.136,72.749C89.136,72.523 89.211,72.333 89.359,72.181C89.508,72.029 89.695,71.953 89.922,71.953L90.554,71.953C90.781,71.953 90.97,72.029 91.123,72.181C91.275,72.333 91.351,72.523 91.351,72.749C91.351,72.82 91.386,72.855 91.457,72.855L92.336,72.855C92.578,72.855 92.785,72.939 92.957,73.107C93.129,73.275 93.215,73.476 93.215,73.71L93.215,74.285C93.215,74.37 93.183,74.443 93.121,74.501C93.058,74.56 92.984,74.589 92.898,74.589C92.859,74.589 92.84,74.605 92.84,74.636C92.738,75.144 92.629,75.617 92.511,76.054C92.496,76.117 92.523,76.148 92.594,76.148ZM90.648,76.019C90.804,75.316 90.898,74.886 90.929,74.73C90.937,74.699 90.929,74.667 90.906,74.636C90.883,74.605 90.851,74.589 90.812,74.589L89.84,74.589C89.761,74.589 89.73,74.64 89.746,74.742C89.918,75.492 90.011,75.917 90.027,76.019C90.043,76.105 90.097,76.148 90.191,76.148L90.472,76.148C90.558,76.148 90.617,76.105 90.648,76.019ZM92.136,78.433C92.418,78.433 92.658,78.533 92.857,78.732C93.056,78.931 93.156,79.171 93.156,79.453L93.156,82.148C93.156,82.429 93.054,82.669 92.851,82.869C92.648,83.068 92.41,83.167 92.136,83.167L91.422,83.167C91.336,83.167 91.263,83.138 91.205,83.079C91.146,83.021 91.117,82.949 91.117,82.863C91.117,82.831 91.097,82.816 91.058,82.816L89.722,82.816C89.691,82.816 89.676,82.831 89.676,82.863C89.676,82.949 89.644,83.021 89.582,83.079C89.519,83.138 89.445,83.167 89.359,83.167L88.527,83.167C88.246,83.167 88.006,83.068 87.806,82.869C87.607,82.669 87.508,82.429 87.508,82.148L87.508,79.453C87.508,79.171 87.609,78.931 87.812,78.732C88.015,78.533 88.254,78.433 88.527,78.433L92.136,78.433ZM91.117,80.999L91.117,80.308C91.117,80.222 91.07,80.175 90.976,80.167L89.804,80.167C89.719,80.167 89.676,80.214 89.676,80.308L89.676,80.999C89.676,81.085 89.719,81.128 89.804,81.128L90.976,81.128C91.07,81.128 91.117,81.085 91.117,80.999Z" style="fill:rgb(236,113,161);fill-rule:nonzero;"/>
    </g>
</svg>
